<?xml version="1.0" standalone="no"?><!DOCTYPE svg PUBLIC "-//W3C//DTD SVG 1.1//EN" "http://www.w3.org/Graphics/SVG/1.1/DTD/svg11.dtd"><svg t="1777020246150" class="icon" viewBox="0 0 1024 1024" version="1.1" xmlns="http://www.w3.org/2000/svg" p-id="1666" xmlns:xlink="http://www.w3.org/1999/xlink" width="200" height="200"><path d="M745.79968 147.98848c26.78784 0 50.176 2.17088 69.0176 4.83328l14.99136 2.37568 12.57472 2.4576 9.95328 2.21184 12.53376 3.35872 0.53248 0.49152 2.8672 10.56768 2.8672 12.61568 2.37568 12.32896 1.55648 9.54368 1.51552 10.48576 1.31072 11.4688 1.14688 12.288 0.86016 13.1072 0.32768 6.88128 0.36864 14.29504c0.12288 9.74848-0.08192 19.98848-0.6144 30.63808l-1.06496 16.30208-0.77824 8.35584-2.00704 17.12128c-12.0832 89.7024-52.0192 199.18848-157.94176 298.68032l1.47456 7.7824 1.31072 9.0112 0.86016 7.5776 0.73728 8.76544 0.49152 9.74848 0.12288 10.6496c0 1.8432 0 3.6864-0.08192 5.61152l-0.57344 11.71456a253.82912 253.82912 0 0 1-1.14688 12.288l-1.8432 12.6976c-7.45472 42.84416-28.22144 90.64448-79.42144 121.81504-24.86272 15.1552-55.54176 19.2512-81.5104 19.2512-4.38272 0-8.6016-0.16384-12.6976-0.32768l-11.63264-0.8192a282.70592 282.70592 0 0 1-5.3248-0.53248l-13.312-1.8432-11.96032-2.2528 5.24288-6.7584 4.25984-6.144 4.99712-7.7824c1.72032-2.8672 3.52256-5.98016 5.3248-9.29792l5.3248-10.6496c9.54368-20.64384 17.24416-47.104 13.1072-74.3424-1.18784-7.7824-6.144-10.6496-14.25408-10.6496-4.38272 0-9.74848 0.8192-15.89248 2.17088l-13.35296 3.2768-15.36 4.05504-17.16224 4.17792c-17.98144 4.05504-38.37952 7.41376-60.37504 7.41376l-6.5536-0.08192-6.67648-0.36864-138.28096-138.24c-1.47456-23.30624 1.2288-45.13792 5.07904-64.512l3.11296-14.09024 9.17504-35.88096 2.08896-9.54368c2.78528-14.78656 1.59744-23.9616-9.4208-25.64096a109.48608 109.48608 0 0 0-15.40096-1.10592c-30.47424 0-58.61376 12.86144-77.16864 23.92064l-8.43776 5.28384-6.59456 4.58752-7.3728 5.61152-1.55648-7.74144-1.10592-6.88128c-3.93216-26.09152-8.31488-81.59232 16.13824-121.81504C205.2096 318.6688 278.528 305.43872 328.21248 305.43872c4.7104 0 9.17504 0.12288 13.39392 0.32768l11.8784 0.8192 5.20192 0.49152 12.6976 1.67936 8.8064 1.6384c125.99296-134.06208 268.04224-162.4064 365.60896-162.4064zM336.36352 797.4912a30.72 30.72 0 0 1 0 43.45856l-30.9248 30.9248a30.72 30.72 0 1 1-43.4176-43.4176l30.88384-30.96576a30.72 30.72 0 0 1 43.45856 0z m-35.06176-70.12352a30.67904 30.67904 0 0 1 0 43.4176l-80.4864 80.56832a30.72 30.72 0 0 1-40.01792 2.94912l-3.44064-2.94912a30.76096 30.76096 0 0 1 0-43.49952l80.52736-80.4864a30.67904 30.67904 0 0 1 43.4176 0zM745.79968 213.52448c-81.59232 0-200.04864 23.06048-307.48672 131.072l-10.36288 10.69056-25.8048 27.48416-38.21568-8.8064-7.29088-1.10592-7.70048-0.90112-9.58464-0.69632a218.39872 218.39872 0 0 0-11.14112-0.28672c-51.85536 0-88.76032 17.36704-109.64992 51.6096 9.70752-1.6384 19.74272-2.58048 30.1056-2.58048 8.47872 0 16.95744 0.6144 25.1904 1.88416a76.67712 76.67712 0 0 1 53.4528 33.5872c16.7936 25.68192 14.336 53.0432 8.47872 78.68416l-3.11296 12.6976-1.6384 6.144c-3.6864 13.88544-7.61856 28.79488-9.91232 44.48256l-1.39264 11.8784 99.5328 99.5328a281.14944 281.14944 0 0 0 45.83424-8.51968l10.48576-2.78528c18.8416-4.99712 35.0208-9.25696 52.10112-9.25696 41.28768 0 73.03168 26.66496 79.0528 66.43712 2.90816 19.29216 2.2528 37.92896-0.65536 55.296 42.92608-26.17344 51.69152-73.97376 51.8144-108.05248l-0.2048-10.24a212.7872 212.7872 0 0 0-0.28672-4.75136l-0.73728-8.43776-0.8192-6.88128-1.59744-8.92928-7.86432-36.2496 26.91072-25.88672c102.52288-96.29696 134.3488-202.38336 140.82048-283.52512l0.98304-15.89248c0.4096-10.36288 0.49152-20.23424 0.24576-29.4912l-0.57344-13.5168a420.6592 420.6592 0 0 0-0.4096-6.43072l-1.10592-12.16512-1.31072-11.10016-1.47456-10.07616c-16.7936-2.62144-38.912-4.9152-64.67584-4.9152zM231.17824 692.26496a30.67904 30.67904 0 0 1 0 43.4176l-30.9248 30.9248a30.72 30.72 0 0 1-40.01792 2.99008l-3.44064-2.99008a30.72 30.72 0 0 1 0-43.4176l30.96576-30.9248a30.67904 30.67904 0 0 1 43.4176 0z m409.68192-410.0096a105.55392 105.55392 0 1 1-0.04096 211.02592 105.55392 105.55392 0 0 1 0.04096-211.02592z m0 65.536a39.7312 39.7312 0 0 0-28.2624 11.71456 39.7312 39.7312 0 0 0-11.71456 28.2624c0 10.6496 4.13696 20.76672 11.71456 28.2624a39.69024 39.69024 0 0 0 28.2624 11.71456 40.01792 40.01792 0 0 0 0-79.95392z" fill="#3F9CFC" p-id="1667"></path></svg>