<?xml version="1.0" standalone="no"?><!DOCTYPE svg PUBLIC "-//W3C//DTD SVG 1.1//EN" "http://www.w3.org/Graphics/SVG/1.1/DTD/svg11.dtd"><svg t="1777020789375" class="icon" viewBox="0 0 1024 1024" version="1.1" xmlns="http://www.w3.org/2000/svg" p-id="17512" xmlns:xlink="http://www.w3.org/1999/xlink" width="200" height="200"><path d="M93.653248 560.896a51.2 51.2 0 0 0 39.168 18.176 54.272 54.272 0 0 0 16.896-2.816 51.2 51.2 0 0 0 33.792-48.128v-214.784a131.84 131.84 0 0 1 12.8-65.536A79.104 79.104 0 0 1 230.613248 214.784a143.872 143.872 0 0 1 72.192-13.056h427.52a131.84 131.84 0 0 1 65.792 12.8 79.104 79.104 0 0 1 33.024 33.024 144.896 144.896 0 0 1 13.056 72.704 51.2 51.2 0 0 0 25.6 44.032 51.2 51.2 0 0 0 76.8-44.032 237.056 237.056 0 0 0-25.6-120.576 179.2 179.2 0 0 0-74.496-74.752 241.408 241.408 0 0 0-120.832-25.6H292.821248a230.4 230.4 0 0 0-111.104 25.6 179.2 179.2 0 0 0-74.752 75.008 239.104 239.104 0 0 0-25.6 120.064V409.6a51.2 51.2 0 0 0-43.52-8.704A51.2 51.2 0 0 0 2.005248 435.2a51.2 51.2 0 0 0 13.824 51.2l67.072 67.072a66.304 66.304 0 0 0 10.752 7.424zM1008.853248 575.744l-67.072-67.328a61.952 61.952 0 0 0-7.936-6.4 51.2 51.2 0 0 0-38.4-22.016h-3.584a51.2 51.2 0 0 0-35.84 14.848 51.2 51.2 0 0 0-14.848 36.096v216.576a132.352 132.352 0 0 1-12.8 65.792 79.104 79.104 0 0 1-33.024 33.024 144.384 144.384 0 0 1-72.448 13.056H295.893248A133.888 133.888 0 0 1 230.613248 846.336a79.104 79.104 0 0 1-33.024-33.024 145.408 145.408 0 0 1-13.056-72.96 51.2 51.2 0 1 0-102.4 0 240.128 240.128 0 0 0 25.6 120.832 179.2 179.2 0 0 0 74.752 74.752 237.568 237.568 0 0 0 120.832 25.6h428.288a230.4 230.4 0 0 0 111.36-25.6 179.2 179.2 0 0 0 74.752-74.496 239.104 239.104 0 0 0 25.6-120.576V652.8a51.2 51.2 0 0 0 66.048-76.8z" p-id="17513" fill="#ffffff"></path></svg>