<?xml version="1.0" standalone="no"?><!DOCTYPE svg PUBLIC "-//W3C//DTD SVG 1.1//EN" "http://www.w3.org/Graphics/SVG/1.1/DTD/svg11.dtd"><svg t="1777021011564" class="icon" viewBox="0 0 1024 1024" version="1.1" xmlns="http://www.w3.org/2000/svg" p-id="22501" xmlns:xlink="http://www.w3.org/1999/xlink" width="200" height="200"><path d="M512 213.333333a294.357333 294.357333 0 0 0-149.930667 40.021334 298.453333 298.453333 0 0 0-108.586666 108.757333A292.650667 292.650667 0 0 0 213.333333 512a293.12 293.12 0 0 0 40.149334 150.058667 300.16 300.16 0 0 0 108.373333 108.458666A292.949333 292.949333 0 0 0 512 810.666667a292.608 292.608 0 0 0 150.016-40.106667 299.861333 299.861333 0 0 0 108.458667-108.458667A293.077333 293.077333 0 0 0 810.624 512a292.437333 292.437333 0 0 0-40.149333-149.973333 298.112 298.112 0 0 0-108.373334-108.544A294.570667 294.570667 0 0 0 512 213.333333z m0 106.666667c34.901333 0 66.858667 8.533333 96.341333 25.642667 29.610667 17.365333 52.778667 40.533333 69.973334 70.101333 17.152 29.354667 25.642667 61.184 25.642666 96.256 0 35.114667-8.490667 66.944-25.642666 96.341333a192.938667 192.938667 0 0 1-70.144 70.101334c-29.184 17.066667-61.013333 25.557333-96.170667 25.557333-35.157333 0-66.986667-8.490667-96.298667-25.6a193.194667 193.194667 0 0 1-70.058666-70.101333A187.008 187.008 0 0 1 320 512c0-35.029333 8.533333-66.901333 25.642667-96.213333a191.701333 191.701333 0 0 1 70.144-70.229334C445.141333 328.533333 477.013333 320 512 320z" fill="#2c2c2c" p-id="22502"></path><path d="M853.333333 469.333333m53.333334 0l64 0q53.333333 0 53.333333 53.333334l0 0q0 53.333333-53.333333 53.333333l-64 0q-53.333333 0-53.333334-53.333333l0 0q0-53.333333 53.333334-53.333334Z" fill="#2c2c2c" p-id="22503"></path><path d="M458.666667 170.666667m0-53.333334l0-64q0-53.333333 53.333333-53.333333l0 0q53.333333 0 53.333333 53.333333l0 64q0 53.333333-53.333333 53.333334l0 0q-53.333333 0-53.333333-53.333334Z" fill="#2c2c2c" p-id="22504"></path><path d="M458.666667 1024m0-53.333333l0-64q0-53.333333 53.333333-53.333334l0 0q53.333333 0 53.333333 53.333334l0 64q0 53.333333-53.333333 53.333333l0 0q-53.333333 0-53.333333-53.333333Z" fill="#2c2c2c" p-id="22505"></path><path d="M715.644571 243.589923m37.712362-37.712362l45.254834-45.254834q37.712362-37.712362 75.424723 0l0 0q37.712362 37.712362 0 75.424724l-45.254834 45.254834q-37.712362 37.712362-75.424723 0l0 0q-37.712362-37.712362 0-75.424724Z" fill="#2c2c2c" p-id="22506"></path><path d="M112.246785 846.98771m37.712361-37.712362l45.254834-45.254834q37.712362-37.712362 75.424724 0l0 0q37.712362 37.712362 0 75.424723l-45.254834 45.254834q-37.712362 37.712362-75.424724 0l0 0q-37.712362-37.712362 0-75.424723Z" fill="#2c2c2c" p-id="22507"></path><path d="M791.073658 726.308152m37.712362 37.712362l45.254834 45.254834q37.712362 37.712362 0 75.424723l0 0q-37.712362 37.712362-75.424724 0l-45.254834-45.254834q-37.712362-37.712362 0-75.424723l0 0q37.712362-37.712362 75.424724 0Z" fill="#2c2c2c" p-id="22508"></path><path d="M187.675872 122.910366m37.712361 37.712361l45.254834 45.254834q37.712362 37.712362 0 75.424724l0 0q-37.712362 37.712362-75.424723 0l-45.254834-45.254834q-37.712362-37.712362 0-75.424724l0 0q37.712362-37.712362 75.424723 0Z" fill="#2c2c2c" p-id="22509"></path><path d="M0 469.333333m53.333333 0l64 0q53.333333 0 53.333334 53.333334l0 0q0 53.333333-53.333334 53.333333l-64 0q-53.333333 0-53.333333-53.333333l0 0q0-53.333333 53.333333-53.333334Z" fill="#2c2c2c" p-id="22510"></path></svg>