<?xml version="1.0" standalone="no"?><!DOCTYPE svg PUBLIC "-//W3C//DTD SVG 1.1//EN" "http://www.w3.org/Graphics/SVG/1.1/DTD/svg11.dtd"><svg t="1777021045201" class="icon" viewBox="0 0 1024 1024" version="1.1" xmlns="http://www.w3.org/2000/svg" p-id="23551" xmlns:xlink="http://www.w3.org/1999/xlink" width="200" height="200"><path d="M420.321882 81.257412l8.794353-21.865412A40.176941 40.176941 0 0 0 376.892235 7.228235l-21.865411 8.794353a502.061176 502.061176 0 1 0 652.950588 652.950588l8.854588-21.805176a40.176941 40.176941 0 0 0-52.284235-52.224l-21.805177 8.794353a401.588706 401.588706 0 0 1-522.420706-522.420706zM286.840471 171.791059l8.613647-6.927059-0.240942 1.807059a501.940706 501.940706 0 0 0 497.904942 566.211765l21.564235-0.481883c9.517176-0.421647 19.034353-1.084235 28.491294-1.987765l15.962353-1.927529-6.927059 8.734118a401.588706 401.588706 0 1 1-565.36847-565.368471z" p-id="23552" fill="#ffffff"></path></svg>