<svg xmlns="http://www.w3.org/2000/svg" viewBox="0 0 64 64">
  <defs>
    <linearGradient id="panel" x1="15" y1="15" x2="49" y2="49" gradientUnits="userSpaceOnUse">
      <stop offset="0" stop-color="#55ecff" />
      <stop offset="0.55" stop-color="#0aa7ff" />
      <stop offset="1" stop-color="#0555d8" />
    </linearGradient>
    <filter id="glow" x="-40%" y="-40%" width="180%" height="180%">
      <feDropShadow dx="0" dy="0" stdDeviation="4" flood-color="#10d6ff" flood-opacity="0.65" />
      <feDropShadow dx="0" dy="0" stdDeviation="1.6" flood-color="#d9feff" flood-opacity="0.95" />
    </filter>
  </defs>
  <rect width="64" height="64" rx="16" fill="#171d24" />
  <g filter="url(#glow)">
    <rect x="15" y="15" width="34" height="34" rx="10" fill="url(#panel)" stroke="#7bf6ff" stroke-width="1.5" />
    <rect x="20" y="20" width="24" height="24" rx="7" fill="none" stroke="#e4fdff" stroke-opacity="0.9" stroke-width="1.5" />
    <path
      d="M39.5 24.5C36.8 22.4 33.9 21.4 30.8 21.4C26.2 21.4 23.2 23.7 23.2 27.2C23.2 30.8 26.3 31.8 31.1 32.7"
      fill="none"
      stroke="#e4fdff"
      stroke-width="4.4"
      stroke-linecap="round"
      stroke-linejoin="round"
    />
    <path
      d="M31.1 32.7C35.6 33.5 38.2 34.8 38.2 38.3C38.2 42.5 34.7 45.2 29.7 45.2C26.3 45.2 23.3 44.1 20.6 41.8"
      fill="none"
      stroke="#e4fdff"
      stroke-width="4.4"
      stroke-linecap="round"
      stroke-linejoin="round"
    />
  </g>
</svg>
